<svg xmlns="http://www.w3.org/2000/svg" xmlns:vectornator="http://vectornator.io" xml:space="preserve" stroke-linecap="round" stroke-linejoin="round" stroke-miterlimit="10" clip-rule="evenodd" viewBox="0 0 200 130"><g vectornator:layerName="b1"><path vectornator:layerName="path" fill="#ffdb6f" d="M173.87 2.67a47.66 47.66 0 0 1-47.56 47.66h-.07V29.96a27.22 27.22 0 0 0 27.23-27.3h20.4ZM63.51 106.74c9.97.84 18.66-1.8 25.23-9.66a25.85 25.85 0 0 0 6.17-17.81 26.32 26.32 0 0 0-9.78-20.13c-6.23-5.26-13.58-6.66-21.59-6.1V32.79a47.35 47.35 0 0 1 25.07 89.83 47.35 47.35 0 0 1-25.13 4.5v-20.38h.03Zm90.11-39.03h20.16v59.62h-20.16V67.68v.03ZM46.38 62.35H26.13V2.7h20.25v59.65Z"/></g></svg>