<svg xmlns="http://www.w3.org/2000/svg" xmlns:vectornator="http://vectornator.io" xml:space="preserve" stroke-linecap="round" stroke-linejoin="round" stroke-miterlimit="10" clip-rule="evenodd" viewBox="0 0 200 130"><g vectornator:layerName="grafik" fill="#ffdb6f"><path vectornator:layerName="path" d="M23.77 47.92c-8.52 0-16.53 7.54-16.53 16.58v.16c0 9.73 7.93 16.88 17.36 16.88 4.1.03 8.13-1.07 11.64-3.2v-7.6h-12.4V60.63h21.22v-15.4l-7.37 8.1c-4.11-3.43-7.76-5.4-13.92-5.4"/><path vectornator:layerName="path 1" d="M24.22 92.19c-8.52 0-16-3.08-21.26-8.2v12.28a37.33 37.33 0 0 0 42.1.05V85.26a34.3 34.3 0 0 1-20.84 6.93"/><path vectornator:layerName="path 2" d="M2.96 45.8V33.72a37.35 37.35 0 0 1 42.1-.06v11.56c-5.55-4.71-11.33-8.09-20.91-8.09a29.85 29.85 0 0 0-21.19 8.65"/><path vectornator:layerName="path 17" d="M104.31 79.78a27.54 27.54 0 0 1-13.17 3.15c-9.8 0-16.8-6.66-16.8-16.59 0-3.28.72-6.2 2.03-8.64 2.76-5.15 8.13-8.21 14.77-8.21 4.86 0 9.22 1.03 12.54 4L99.5 57.7a12.02 12.02 0 0 0-8.31-3.1c-6.56 0-10.92 5.03-10.92 11.37 0 6.79 4.36 11.82 10.92 11.82 2.58.09 5.15-.48 7.46-1.66v-7.5h-6.52V63.5h12.18v16.27Z"/><path vectornator:layerName="path 18" d="M109.52 60.54h5.4v3.42h.09a6.87 6.87 0 0 1 8.31-3.64v5.21c-.84-.24-1.72-.37-2.6-.4-5.08 0-5.8 4.27-5.8 5.44v11.55h-5.4V60.54Z"/><path vectornator:layerName="path 19" d="M139.57 79.15h-.13c-1.53 2.43-4.04 3.5-6.92 3.5-4 0-7.87-2.2-7.87-6.47 0-7 8.18-7.5 13.58-7.5h1.34v-.59c0-2.65-2.06-4.04-4.94-4.04-2.13 0-4.19.8-5.75 2.25l-2.83-2.84c2.38-2.42 5.75-3.46 9.16-3.46 9.22 0 9.22 6.66 9.22 9.71v12.4h-4.86v-2.96Zm-.3-6.7h-1.13c-2.97 0-8.09.23-8.09 3.33 0 1.98 2.02 2.83 3.77 2.83 3.7 0 5.44-1.93 5.44-4.94v-1.22Z"/><path vectornator:layerName="path 20" d="M151.24 65.13h-4.45v-4.59h4.45V57.5c0-5.98 1.35-9.89 8.05-9.89 1.14 0 2.29.1 3.41.32l-.36 4.58c-.73-.2-1.49-.3-2.25-.31-3 0-3.46 2.06-3.46 4.44v3.91h5v4.59h-5v16.99h-5.4v-17h.01Z"/><path vectornator:layerName="path 21" d="M167.8 49.98a3.24 3.24 0 1 1-3.4 3.24 3.32 3.32 0 0 1 3.4-3.24Zm-2.65 10.56h5.4v21.58h-5.4V60.54Z"/><path vectornator:layerName="path 22" d="M175.82 48.14h5.4v21.35l8.31-8.95h6.92l-9.25 9.8 9.84 11.77h-7.15l-8.58-11h-.1v11h-5.39V48.15Z"/></g></svg>