<svg xmlns="http://www.w3.org/2000/svg" width="40" height="40" viewBox="0 0 512 512"><path fill="url(#a)" d="M243.5 37.3c8-3.4 17-3.4 25 0l176.7 75c11.3 4.8 18.9 15.5 18.8 27.6-.5 94-39.4 259.8-195.5 334.5-7.9 3.8-17.2 3.8-25.1 0C87.3 399.6 48.5 233.8 48 139.8c-.1-12.1 7.5-22.8 18.8-27.6l176.7-75zM281 7.8c-16-6.8-34-6.8-50 0l-176.7 75c-22 9.3-38.4 31-38.3 57.2.5 99.2 41.3 280.7 213.6 363.2 16.7 8 36.1 8 52.8 0C454.7 420.7 495.5 239.2 496 140c.1-26.2-16.3-47.9-38.3-57.2L281 7.8zm82.3 195.5c6.2-6.2 6.2-16.4 0-22.6s-16.4-6.2-22.6 0L224 297.4l-52.7-52.7c-6.2-6.2-16.4-6.2-22.6 0s-6.2 16.4 0 22.6l64 64c6.2 6.2 16.4 6.2 22.6 0l128-128z"/><defs><linearGradient id="a" x1="1.93" x2="19.7" y1="0" y2="29.02" gradientUnits="userSpaceOnUse"><stop offset=".26" stop-color="#FFDB6E"/><stop offset="1" stop-color="#FFBC5E"/></linearGradient></defs></svg>