<svg xmlns="http://www.w3.org/2000/svg" width="40" height="40" viewBox="0 0 576 512"><path fill="url(#a)" d="M192 128c0-53 43-96 96-96s96 43 96 96c0 8.8 7.2 16 16 16s16-7.2 16-16C416 57.3 358.7 0 288 0S160 57.3 160 128c0 40 18.4 75.8 47.1 99.2L147.3 323c-6.1-1.9-12.6-3-19.3-3-35.3 0-64 28.7-64 64s28.7 64 64 64 64-28.7 64-64c0-17.1-6.7-32.6-17.6-44.1L238 238.2c7.2-11.5 3.2-25.5-6.5-32.7A95.4 95.4 0 0 1 192 128zm-32 256a32 32 0 1 1-64 0 32 32 0 1 1 64 0zm128-224a32 32 0 1 1 0-64 32 32 0 1 1 0 64zm-64-32c0 35.3 28.7 64 64 64 6.7 0 13.2-1 19.3-3l63.5 101.7c7.2 11.5 21.6 14.1 32.2 8.4a96.06 96.06 0 0 1 45-11.1c53 0 96 43 96 96s-43 96-96 96c-18.7 0-36.1-5.3-50.9-14.6a16.05 16.05 0 0 0-17 27.2c19.7 12.3 43 19.5 67.9 19.5 70.7 0 128-57.3 128-128s-57.3-128-128-128c-19.2 0-37.4 4.2-53.8 11.8l-59.8-95.7c10.9-11.5 17.6-27 17.6-44.1 0-35.3-28.7-64-64-64s-64 28.7-64 64zM73.2 305.2c7.2-5.1 9-15 4-22.3s-15-9-22.3-4C21.7 302.1 0 340.5 0 384c0 70.7 57.3 128 128 128 65.3 0 119.1-48.9 127-112h131c7.1 27.6 32.2 48 62 48 35.3 0 64-28.7 64-64s-28.7-64-64-64c-29.8 0-54.9 20.4-62 48H248c-13.5 0-23.4 10.8-24.2 22.9-3.6 49.8-45.1 89.1-95.8 89.1-53 0-96-43-96-96 0-32.6 16.2-61.4 41.2-78.8zM480 384a32 32 0 1 1-64 0 32 32 0 1 1 64 0z"/><defs><linearGradient id="a" x1="1.93" x2="19.7" y1="0" y2="29.02" gradientUnits="userSpaceOnUse"><stop offset=".26" stop-color="#FFDB6E"/><stop offset="1" stop-color="#FFBC5E"/></linearGradient></defs></svg>