<?xml version="1.0" standalone="no"?>
<!DOCTYPE svg PUBLIC "-//W3C//DTD SVG 20010904//EN"
 "http://www.w3.org/TR/2001/REC-SVG-20010904/DTD/svg10.dtd">
<svg version="1.0" xmlns="http://www.w3.org/2000/svg"
 width="1000.000000pt" height="1000.000000pt" viewBox="0 0 1000.000000 1000.000000"
 preserveAspectRatio="xMidYMid meet">
<metadata>
Created by potrace 1.14, written by Peter Selinger 2001-2017
</metadata>
<g transform="translate(0.000000,1000.000000) scale(0.100000,-0.100000)"
fill="#000000" stroke="none">
<path d="M0 5000 l0 -5000 5000 0 5000 0 0 5000 0 5000 -5000 0 -5000 0 0
-5000z m8000 2235 c227 -36 351 -71 618 -178 l202 -80 0 -519 0 -518 -100 0
c-72 0 -102 4 -105 13 -3 7 -18 140 -33 296 l-28 283 -49 44 c-284 250 -631
368 -950 323 -230 -32 -413 -135 -541 -305 -177 -235 -279 -570 -331 -1087
-21 -212 -24 -885 -5 -1067 55 -517 162 -869 333 -1101 187 -253 454 -372 765
-340 126 13 224 36 334 78 l75 29 0 653 0 654 -172 38 c-95 20 -184 40 -198
43 l-26 7 3 122 3 122 715 0 715 0 3 -122 3 -122 -68 -20 c-37 -11 -106 -31
-153 -44 l-85 -24 -5 -734 -5 -733 -88 -38 c-273 -118 -680 -216 -1031 -249
-174 -16 -430 -7 -561 21 -297 63 -537 192 -745 400 -198 199 -339 438 -445
757 -226 673 -203 1718 51 2364 244 622 676 972 1294 1048 112 14 486 5 610
-14z m-5191 -35 c276 -29 511 -108 701 -235 402 -268 636 -786 701 -1550 15
-179 15 -678 0 -860 -58 -703 -216 -1154 -513 -1461 -224 -231 -485 -350 -843
-383 -71 -7 -398 -8 -925 -3 l-815 7 -3 122 c-3 120 -2 123 20 128 75 17 372
85 375 85 1 0 3 861 3 1914 l0 1915 -77 17 c-43 9 -132 28 -198 43 l-120 27
-3 122 -3 122 803 0 c456 0 843 -5 897 -10z m2403 -1874 c103 -156 190 -290
193 -299 7 -16 -372 -600 -386 -595 -9 3 -389 575 -389 585 0 9 384 592 390
593 3 0 89 -128 192 -284z"/>
<path d="M2240 4970 l0 -1870 23 -4 c144 -31 472 -31 581 -1 173 48 297 154
390 335 118 229 172 490 206 988 14 203 14 820 0 997 -47 599 -180 992 -409
1207 -159 150 -361 218 -652 218 l-139 0 0 -1870z"/>
</g>
</svg>
