<svg xmlns="http://www.w3.org/2000/svg" xmlns:vectornator="http://vectornator.io" xml:space="preserve" stroke-linecap="round" stroke-linejoin="round" stroke-miterlimit="10" clip-rule="evenodd" viewBox="0 0 200 130"><g vectornator:layerName="eosio" fill="#ffdb6f"><path vectornator:layerName="path" d="M57.28 113.55H32.95c.37 6.22 4.74 10.3 10.72 10.3 4.2 0 7.8-1.72 9.47-4.6l3.48 2.13c-2.22 3.86-7.14 6.28-13.07 6.28-8.22 0-14.85-6.28-14.85-14.74A13.99 13.99 0 0 1 33 102.7a14.96 14.96 0 0 1 10.5-4.16c7.84 0 13.9 5.8 13.9 13.29 0 .52-.07 1.15-.13 1.72h.01Zm-4.38-3.27c-.36-4.77-4.37-8.22-9.59-8.22-5.15 0-9.1 3.33-10.12 8.22H52.9Z"/><path vectornator:layerName="path 1" d="M92.81 113.1c0 8.22-6.65 14.55-15.1 14.55s-15.04-6.33-15.04-14.56 6.6-14.56 15.04-14.56c8.45 0 15.1 6.34 15.1 14.56Zm-25.82 0c0 5.94 4.67 10.58 10.72 10.58a10.93 10.93 0 0 0 7.68-3.08 10.44 10.44 0 0 0 3.1-7.5c0-6-4.72-10.6-10.78-10.6-6.05 0-10.72 4.6-10.72 10.6Z"/><path vectornator:layerName="path 2" d="m98.44 123.63 1.98-3.17c2.28 2.19 6.3 3.68 9.7 3.68 4.02 0 6.6-1.95 6.6-4.54 0-7.25-17.44-2.48-17.44-12.9 0-4.89 4.32-8.17 10.66-8.17 3.96 0 7.97 1.27 10.25 3.63l-2.04 3.16c-1.98-2.08-5.75-3.26-8.57-3.26-3.6 0-5.93 1.72-5.93 4.37 0 6.62 17.5 2.24 17.5 13.07 0 4.72-4.44 8.18-10.97 8.18-4.37 0-8.98-1.61-11.74-4.03"/><path vectornator:layerName="path 3" d="M135.14 89.9a3.1 3.1 0 0 1-.96 2.15c-.59.57-1.38.9-2.2.9a3.17 3.17 0 0 1-2.26-.85 3.02 3.02 0 0 1-.94-2.17 2.95 2.95 0 0 1 .94-2.17 3.1 3.1 0 0 1 2.25-.85c1.68 0 3.18 1.38 3.18 3h-.01Zm-1.01 9.21v27.97h-4.38v-23.75h-3.12v-4.22h7.5Z"/><path vectornator:layerName="path 4" d="M171.3 113.1c0 8.22-6.65 14.55-15.1 14.55-8.44 0-15.03-6.33-15.03-14.56s6.59-14.56 15.04-14.56 15.1 6.34 15.1 14.56Zm-25.82 0c0 5.94 4.67 10.58 10.73 10.58a10.92 10.92 0 0 0 7.67-3.08 10.44 10.44 0 0 0 3.1-7.5c0-6-4.73-10.6-10.78-10.6a10.5 10.5 0 0 0-10.73 10.6"/><path vectornator:layerName="path 5" d="M117.35 36.77 123.93 67l-21.45 12.37 14.87-42.6Zm-33.72-6.88L99.48 9.14l15.84 20.75-7.49 21.47-8.35 23.94-15.85-45.4ZM75.03 67l6.57-30.23 14.87 42.6L75.03 67Zm44.96-37.8L99.5 2.33 78.97 29.2 70.3 68.98l29.18 16.83 29.17-16.83L120 29.2Z"/></g></svg>