<svg xmlns="http://www.w3.org/2000/svg" xmlns:vectornator="http://vectornator.io" xml:space="preserve" stroke-linecap="round" stroke-linejoin="round" stroke-miterlimit="10" clip-rule="evenodd" viewBox="0 0 200 130"><g vectornator:layerName="greymass"><g vectornator:layerName="gm"><g vectornator:layerName="g" fill="#ffdb6f"><path vectornator:layerName="rect" d="M98.21 112.05h.83v15.63h-.83v-15.63Z"/><g vectornator:layerName="g"><path vectornator:layerName="path" d="M15.82 115.64a4.34 4.34 0 0 1 1.8 2.45h-1.58a3.34 3.34 0 0 0-1.35-1.53c-.68-.4-1.46-.6-2.24-.57-.72 0-1.43.15-2.08.5-.6.33-1.1.83-1.43 1.43a4.79 4.79 0 0 0 0 4.36c.35.6.85 1.1 1.48 1.44a4.62 4.62 0 0 0 4.07.07 3.51 3.51 0 0 0 1.43-1.2c.37-.56.6-1.2.67-1.86h-4.41v-1h5.7v1.25c-.08.83-.38 1.6-.83 2.28a4.9 4.9 0 0 1-1.86 1.58 5.8 5.8 0 0 1-2.66.6c-1 .03-2-.2-2.91-.67a4.72 4.72 0 0 1-1.96-1.88 5.82 5.82 0 0 1 0-5.52 5.13 5.13 0 0 1 4.84-2.66c1.18-.03 2.34.3 3.32.93ZM39.07 125.32l-2.96-4.29h-1.58v4.3h-1.5v-10.5h3.74a4.27 4.27 0 0 1 2.88.86c.65.57 1 1.4.98 2.25.02.78-.25 1.51-.78 2.06-.63.58-1.4.9-2.23.98l3.09 4.34h-1.64Zm-4.56-5.27h2.13c1.66 0 2.51-.67 2.51-2 0-1.36-.83-2.04-2.5-2.04H34.5v4.04ZM57.06 115.94v3.59h4.34v1.05h-4.34v3.66h4.8v1.1H55.6v-10.48h6.25v1.1h-4.8v-.02ZM84.99 114.83l-3.71 6.53v3.94H79.8v-3.94l-3.74-6.53h1.7l2.79 5.07 2.78-5.07H85Z"/></g><g vectornator:layerName="g"><path vectornator:layerName="path" d="M126.59 114.83v10.5h-3.16v-5.95l-2.11 5.94h-2.71l-2.06-5.94v5.94h-3.16v-10.49h3.89l2.78 6.8 2.74-6.8h3.79ZM146.96 123.56h-4.04l-.63 1.76h-3.33l4.16-10.49h3.66l4.17 10.5h-3.34l-.65-1.77Zm-.8-2.2-1.26-3.44-1.23 3.44h2.49ZM171.27 123.9c-.35.5-.85.9-1.43 1.12-.7.3-1.48.43-2.23.43a5.56 5.56 0 0 1-3.26-.88 3.23 3.23 0 0 1-1.4-2.51h3.36c.02.3.15.58.37.78.23.17.5.27.78.27.22.03.45-.05.65-.2.15-.15.25-.35.23-.55 0-.33-.18-.6-.48-.75a10.6 10.6 0 0 0-1.48-.58c-.6-.2-1.2-.4-1.78-.68a3.51 3.51 0 0 1-1.2-.97c-.7-1-.7-2.36 0-3.37.37-.5.9-.85 1.5-1.08a6.4 6.4 0 0 1 2.16-.37c1.1-.05 2.2.25 3.16.85a3.18 3.18 0 0 1 1.28 2.4h-3.36a1.3 1.3 0 0 0-.33-.72.92.92 0 0 0-.7-.22c-.2 0-.43.05-.58.17a.62.62 0 0 0-.2.53c0 .3.18.58.45.7.45.23.96.43 1.43.58.6.2 1.2.42 1.78.7.48.23.9.58 1.23 1 .38.5.56 1.1.53 1.71a2.7 2.7 0 0 1-.48 1.63ZM192.57 123.9c-.35.5-.85.9-1.43 1.12-.7.3-1.48.43-2.23.43a5.55 5.55 0 0 1-3.26-.88 3.23 3.23 0 0 1-1.4-2.51h3.36c0 .3.15.58.37.78.23.17.5.27.78.27.23.03.45-.05.65-.2a.65.65 0 0 0 .23-.55c0-.33-.18-.6-.48-.75-.47-.23-.98-.43-1.48-.58-.6-.17-1.2-.4-1.78-.68a3.52 3.52 0 0 1-1.2-.97 2.9 2.9 0 0 1 1.55-4.45 6.4 6.4 0 0 1 2.16-.37c1.1-.05 2.23.25 3.16.85a3.1 3.1 0 0 1 1.28 2.4h-3.41a1.14 1.14 0 0 0-.33-.72c-.2-.15-.45-.25-.7-.22-.2 0-.43.05-.58.17a.6.6 0 0 0-.2.53c0 .3.18.58.45.7.45.23.96.43 1.43.58.6.2 1.2.42 1.78.7.48.23.9.58 1.23 1 .35.5.53 1.1.5 1.71.06.58-.12 1.15-.45 1.63Z"/></g></g></g><g vectornator:layerName="brain"><path vectornator:layerName="path" fill="#ffdb6f" d="M120.94 83.14a9.62 9.62 0 0 0-.98-1.5c-.35-.48-.75-.93-1.13-1.4-.77-.9-1.63-1.76-2.48-2.59a59.4 59.4 0 0 0-5.42-4.64 36.7 36.7 0 0 0-5.84-3.74c-.98-.5-1.99-.9-3.04-1.23a8.2 8.2 0 0 0-2.81-.4l-.6.07c-.1 0-.18.05-.28.08l-.12.05h-.08.05l.2-.08c.15-.07.28-.17.4-.27.9-.8.98-2.18.18-3.09-.1-.12-.23-.22-.35-.32-.08-.05-.18-.13-.28-.15h-.05.18c.2 0 .47.07.72.1 1.08.12 2.26.2 3.42.22a59.77 59.77 0 0 0 10.48-.7 36.3 36.3 0 0 0 6.6-1.76c1.03-.4 2.01-.87 2.94-1.43a10.86 10.86 0 0 0 4.52-5.04l.12-.35.15-.43c.3-.93.85-1.73 1.58-2.36.68-.57 1.5-.97 2.36-1.2l.9-.18.76-.2a10.6 10.6 0 0 0 5.04-3.63 14.96 14.96 0 0 0 2.76-5.98 14.73 14.73 0 0 0 .3-4.96c0-.28-.07-.56-.13-.78l-.07-.4-.08-.43a40.72 40.72 0 0 0-2.03-6.77 34.76 34.76 0 0 0-7.68-11.75c-3.36-3.33-7.35-6-11.74-7.8a46.75 46.75 0 0 0-13.9-3.36c-2.38-.23-4.79-.3-7.2-.23-2.4.08-4.82.28-7.2.58-4.8.63-9.53 1.63-14.17 2.99a44 44 0 0 0-12.85 6.04 37.55 37.55 0 0 0-5.4 4.6 28.83 28.83 0 0 0-4.24 5.59 19.58 19.58 0 0 0-2.4 6.4c-.18 1.08-.2 2.18-.1 3.28a8.24 8.24 0 0 0 1.68 4.22 4.5 4.5 0 0 0 1.03.9c.9.5 1.88.86 2.9 1 1.13.23 2.36.38 3.62.63 1.38.25 2.7.7 3.94 1.33l.2.08.22.22a34.77 34.77 0 0 0 6.68 5.42A37.3 37.3 0 0 0 76 49.9c1.3.65 2.63 1.2 4.01 1.7a47.56 47.56 0 0 0 26.04 1.74c2.89-.6 5.7-1.58 8.36-2.86a22.82 22.82 0 0 0 7.02-5.22 14.5 14.5 0 0 0 2.36-3.66c.6-1.36.98-2.79 1.1-4.27h.6a13.68 13.68 0 0 1-3.05 8.7 23.54 23.54 0 0 1-7.1 6.05 38.86 38.86 0 0 1-8.66 3.57 48.91 48.91 0 0 1-27.77-.7 39.45 39.45 0 0 1-8.58-4.05 36 36 0 0 1-7.3-6.07l.4.33c-.9-.53-1.89-.9-2.91-1.13-1.1-.28-2.31-.48-3.6-.78-.64-.15-1.3-.35-1.95-.58a8.02 8.02 0 0 1-3.64-2.58 10.7 10.7 0 0 1-1.15-1.83c-.6-1.28-.98-2.64-1.05-4.04-.08-1.36 0-2.71.27-4.01A23.56 23.56 0 0 1 52.3 23a35.76 35.76 0 0 1 10.5-10.74 46.88 46.88 0 0 1 13.6-6.28 98.7 98.7 0 0 1 14.51-3.06c4.94-.65 9.91-.78 14.88-.4 5 .38 9.9 1.5 14.58 3.34 4.71 1.85 9 4.61 12.67 8.13a37.57 37.57 0 0 1 8.45 12.52 46.67 46.67 0 0 1 2.3 7.23l.11.44.1.5c.08.33.1.66.15 1.01.08.65.13 1.33.15 1.98.05 4.04-1.18 8-3.49 11.32a14.56 14.56 0 0 1-2.83 2.98c-1.1.88-2.33 1.58-3.66 2.09-.33.12-.68.22-1 .32l-.89.23c-.32.1-.6.25-.85.47-.2.18-.33.4-.4.66l-.13.45c-.05.17-.1.35-.17.5-.13.35-.25.68-.4 1a13.19 13.19 0 0 1-2.36 3.62 16.4 16.4 0 0 1-3.16 2.7 25.93 25.93 0 0 1-7.28 3.24c-2.48.7-5.02 1.18-7.58 1.43-2.53.25-5.09.35-7.62.25-1.3-.05-2.61-.15-3.9-.35-.34-.05-.72-.1-1.07-.2a7.4 7.4 0 0 1-.7-.2l-.13-.05-.15-.07a2.63 2.63 0 0 1-.95-.7 2.3 2.3 0 0 1 .22-3.24c.15-.13.33-.25.5-.35.13-.08.23-.1.3-.13l.18-.08h.15l.3-.1.63-.12c.4-.08.8-.1 1.23-.13 1.5-.02 2.98.25 4.39.78 1.28.48 2.5 1.06 3.66 1.76a35.8 35.8 0 0 1 6.08 4.76 43.15 43.15 0 0 1 4.91 5.75c.73 1.03 1.4 2.1 1.98 3.21a12.9 12.9 0 0 1 1.36 3.54l-.53.12Z"/></g></g></svg>