<svg xmlns="http://www.w3.org/2000/svg" xmlns:vectornator="http://vectornator.io" xml:space="preserve" stroke-linecap="round" stroke-linejoin="round" stroke-miterlimit="10" clip-rule="evenodd" viewBox="0 0 200 130"><g vectornator:layerName="voice"><g vectornator:layerName="g" fill="#ffdb6f" fill-rule="evenodd"><path vectornator:layerName="path" stroke="#000" stroke-linecap="butt" stroke-linejoin="miter" stroke-width=".36" d="M19.6 93.54 2.95 54.26l7.22-1.93c4.1 10.26 8.2 20.6 12.22 32.8h.16a532.9 532.9 0 0 1 12.61-32.8l6.34 1.45L24.1 93.54h-4.5Zm45.23-36.16c9.08 0 12.06 8.22 12.06 15.49 0 7.59-2.57 16.46-12.06 16.46-9.41 0-11.98-8.87-11.98-16.46 0-7.27 2.97-15.5 11.98-15.5Zm0 37.1c11.9 0 19.8-9.1 19.8-21.61 0-13.08-9.67-20.65-19.8-20.65s-19.72 7.57-19.72 20.65c0 12.51 7.9 21.62 19.72 21.62v-.01Zm29-41.31h7.21v40.37h-7.2V53.17ZM92.8 39.8a4.44 4.44 0 0 1 4.6-4.3 4.44 4.44 0 0 1 4.6 4.3c0 2.18-1.06 4.93-4.6 4.93-3.55 0-4.6-2.76-4.6-4.93Zm50.93 50.46c-3.93 2.83-8.67 4.2-12.11 4.2-19 0-21.39-15.64-21.39-21.2 0-10.05 6.63-21.04 21.7-21.04 4.1 0 7.8 1.05 10.77 3.31l-2.41 4.12a19.65 19.65 0 0 0-8.28-2.1c-6.58 0-14.04 4.37-14.04 15.3 0 8.38 4.25 16.28 13.97 16.28 3.44 0 6.66-.89 9.78-2.9l2.01 4.02v.01Zm13.02-21.23c.25-5.2 3.3-11.66 11.01-11.66 6.35 0 9 5.34 9 11.66h-20Zm26.6 4.83c.8-10.59-3.3-21.64-15.51-21.64-9.08 0-19 6.36-19 20.36 0 14.17 8.23 21.9 20.77 21.9 4.18 0 9.16-1.7 13.34-4.67l-2.1-3.94c-2.8 2.1-7.3 3.45-11 3.45-7.95 0-13.66-7.4-13.58-15.46h27.07Z"/><path vectornator:layerName="path" d="M191 47.8a5 5 0 0 1 3.67 1.54 5.02 5.02 0 0 1 1.5 3.66c0 1.45-.5 2.69-1.5 3.7a4.98 4.98 0 0 1-3.66 1.54 4.96 4.96 0 0 1-3.66-1.54 5.08 5.08 0 0 1-1.5-3.7 5 5 0 0 1 1.5-3.66c.96-1 2.28-1.56 3.66-1.54Zm6.04 5.2c0-1.66-.59-3.09-1.77-4.26a5.79 5.79 0 0 0-4.25-1.75 5.74 5.74 0 0 0-4.23 1.76 5.82 5.82 0 0 0-1.77 4.25c0 1.67.59 3.1 1.75 4.28a5.74 5.74 0 0 0 4.25 1.77c1.66 0 3.09-.58 4.25-1.76a5.86 5.86 0 0 0 1.77-4.29Zm-4.43-1.33c0 .52-.22.86-.69 1.04a2.9 2.9 0 0 1-1.1.14h-1.07v-2.4h1c.66 0 1.12.08 1.42.25.3.16.44.48.44.97Zm-4.03-2v6.62h1.17v-2.61h.93c.6 0 1.03.06 1.29.22.42.24.62.75.62 1.51v.52l.02.22.02.08c0 .02 0 .04.02.06h1.1l-.05-.08a1 1 0 0 1-.06-.35 6.87 6.87 0 0 1-.03-.5v-.48c0-.33-.1-.67-.35-1.03-.26-.37-.67-.6-1.13-.65.41-.06.73-.16.96-.32.45-.27.66-.7.66-1.3 0-.83-.36-1.4-1.04-1.68a5.08 5.08 0 0 0-1.81-.23h-2.32Z"/></g></g></svg>